P2
80 60
438
73 71 64 65 64 65 60 60 59 52 49 48 41 30 30 31 26 25 23 22 16 18 18 15 12 12 16 10 6 7 10 68 137 145 160 176 175 185 201 201 206 202 198 192 185 179 178 175 174 118 73 125 356 369 150 117 359 392 270 311 386 239 81 76 71 67 71 61 57 56 64 60 56 54 55 50 46 48 50 48 
70 64 67 64 65 62 61 57 52 51 50 47 38 31 29 27 26 23 18 23 18 15 15 13 11 17 16 8 12 12 50 117 148 162 181 191 191 196 206 212 214 207 202 200 192 187 189 176 184 159 82 148 372 382 188 169 388 401 283 391 383 165 141 231 110 70 66 60 60 58 57 54 53 52 52 53 49 48 47 50 
65 66 65 63 67 62 63 55 52 48 49 42 40 33 30 28 25 21 20 18 15 14 16 14 12 16 13 10 14 18 97 136 173 193 205 212 214 216 223 227 224 220 216 206 201 202 204 197 193 184 105 150 378 394 221 233 394 397 331 414 356 133 281 333 152 75 71 69 62 57 60 57 56 54 52 54 53 49 46 48 
60 62 65 64 63 63 58 52 53 48 45 48 36 35 30 28 24 22 22 20 17 16 13 11 14 17 18 12 13 54 131 161 194 212 220 228 231 231 239 241 241 234 231 227 227 211 214 219 207 196 128 144 373 389 254 312 405 389 368 411 278 151 362 348 126 79 71 66 64 59 62 54 58 56 52 61 54 50 50 49 
62 59 62 60 60 59 56 53 49 45 43 41 35 28 26 24 22 21 18 17 16 14 11 13 14 16 18 10 17 93 148 173 207 213 219 232 229 233 238 243 248 248 249 245 247 240 233 222 226 197 134 154 376 400 362 398 410 399 408 396 202 286 386 282 90 74 69 67 65 59 62 58 57 55 54 56 51 48 47 52 
63 58 57 57 59 56 54 53 45 44 42 35 34 29 27 24 22 17 15 14 16 11 12 14 10 12 11 11 26 124 162 183 204 210 219 237 237 239 241 248 242 250 252 254 258 264 260 234 229 204 128 186 388 399 398 403 403 407 410 379 212 383 371 170 74 69 62 60 56 54 59 53 52 51 50 52 51 48 47 49 
62 61 61 57 56 56 52 49 44 42 37 35 31 24 20 22 22 18 16 19 11 12 10 12 8 10 12 8 43 152 175 183 229 291 334 358 351 345 348 334 309 291 272 263 265 264 275 262 244 206 117 229 384 401 407 413 406 400 403 378 353 395 296 92 67 64 64 60 55 56 58 48 49 51 51 51 51 43 44 46 
59 58 59 56 57 55 49 47 41 36 41 33 27 23 21 17 21 15 15 15 13 11 10 9 8 11 12 13 60 175 185 245 354 357 370 371 365 365 384 390 396 401 377 323 282 271 275 276 265 214 114 317 384 401 412 424 425 414 410 414 406 369 156 72 64 61 62 57 54 50 51 47 49 46 44 49 40 41 41 40 
57 55 55 56 55 53 49 45 39 37 31 29 25 21 19 18 16 14 11 15 11 9 9 12 11 10 14 17 81 182 233 317 363 344 354 361 355 358 384 392 398 404 397 387 371 336 293 283 276 232 114 320 388 405 422 433 434 427 412 404 394 287 86 61 61 58 56 52 50 46 46 46 43 44 43 45 39 40 39 47 
58 54 54 51 54 52 46 40 37 33 28 25 25 20 17 16 17 13 7 7 8 8 12 12 11 14 12 18 100 203 271 354 347 328 327 346 345 357 384 395 402 400 397 380 381 382 374 312 277 245 152 381 404 408 418 436 438 425 415 407 388 196 73 58 57 53 52 50 47 41 44 43 42 41 40 41 41 37 33 38 
55 50 53 51 51 47 43 39 37 29 28 22 20 16 14 14 13 12 7 8 9 9 6 8 8 9 12 25 122 225 285 345 326 292 291 310 312 337 387 401 397 398 391 377 368 361 385 388 297 249 211 398 417 420 418 431 435 423 399 399 366 131 64 56 54 50 52 49 46 43 39 39 37 34 37 34 35 30 32 39 
54 47 51 47 47 46 41 38 35 27 25 21 19 12 13 12 9 10 9 7 2 7 7 8 6 6 10 47 128 214 283 314 306 295 318 340 355 340 379 400 396 391 376 349 328 331 352 399 328 261 304 404 415 422 417 422 429 415 395 383 323 98 60 52 52 49 49 50 44 42 41 38 39 36 33 35 31 27 27 32 
52 46 46 46 42 45 37 38 33 29 24 15 17 13 12 15 11 7 5 7 3 4 9 6 1 4 6 51 110 207 289 309 323 334 348 377 399 403 395 389 389 387 392 389 381 371 364 389 337 257 300 396 410 414 404 405 416 402 388 376 272 81 53 47 49 50 48 46 39 40 39 37 34 31 31 32 29 26 25 28 
51 44 43 43 44 42 36 34 32 30 26 20 17 16 12 15 11 11 10 9 7 4 7 3 0 6 11 37 127 194 304 321 341 367 365 379 394 412 409 362 359 390 422 404 391 385 383 385 321 238 257 379 391 384 378 398 410 392 375 355 179 66 49 50 45 45 45 44 42 39 38 35 36 33 31 25 27 23 26 28 
51 43 40 41 41 39 37 33 28 28 26 17 15 14 14 21 28 48 64 67 56 21 9 5 4 9 7 24 138 209 321 336 337 362 373 389 398 407 388 330 317 380 409 392 398 398 398 383 303 218 186 320 360 356 358 388 392 380 362 293 90 55 47 45 44 45 39 44 37 33 36 33 31 28 28 26 24 21 16 25 
46 38 37 38 38 35 37 32 30 25 22 17 17 20 42 91 128 148 161 167 173 152 106 40 14 10 11 13 94 216 324 333 326 346 372 384 392 390 342 301 294 340 391 396 394 397 390 364 278 199 112 212 334 354 364 381 379 380 359 218 64 52 45 43 42 38 39 42 37 35 34 34 30 24 23 23 22 15 17 24 
47 41 41 36 39 38 37 35 30 22 22 23 26 68 152 175 182 193 194 183 177 193 199 180 148 99 54 25 43 148 328 331 318 334 356 379 383 368 322 294 302 326 381 395 398 386 378 358 264 152 82 142 337 374 389 386 376 376 353 210 64 49 43 41 42 42 41 38 36 30 31 31 27 29 24 20 24 18 15 23 
48 42 38 40 37 35 39 34 28 22 21 23 64 153 179 186 194 199 204 194 174 191 199 202 212 199 191 159 134 165 320 338 312 315 342 375 382 368 337 304 318 350 373 384 388 378 372 359 215 98 71 99 305 374 383 395 398 384 353 215 63 49 39 40 42 38 39 36 33 27 30 26 26 23 24 19 20 15 16 22 
46 39 37 36 35 36 32 32 30 25 20 40 123 164 181 188 193 199 202 211 190 178 201 198 209 214 205 224 203 211 334 358 326 310 327 356 373 375 328 318 330 354 375 369 363 361 369 322 128 71 65 78 251 367 384 395 398 378 348 221 63 47 40 40 39 38 36 38 35 29 28 23 28 22 21 23 23 19 14 16 
44 35 36 36 33 31 30 30 26 27 30 94 144 158 169 181 190 192 198 209 209 181 193 197 201 208 216 218 230 215 330 365 340 319 323 339 361 355 314 313 320 333 371 367 354 354 362 243 80 64 59 64 193 357 381 385 381 357 340 230 62 44 40 37 36 38 39 36 29 25 26 23 22 20 21 18 20 14 14 19 
47 36 37 35 36 32 31 26 27 27 62 130 134 149 169 181 185 188 189 195 215 199 181 200 199 205 215 217 223 219 316 368 354 331 336 351 364 369 356 346 353 376 385 378 370 360 348 155 64 59 56 58 137 345 374 372 363 344 334 243 64 48 38 34 38 35 37 36 32 27 28 23 20 20 21 18 22 14 16 27 
46 39 37 36 35 31 28 26 30 43 121 146 135 139 163 205 207 199 190 178 204 212 177 201 186 207 204 226 210 214 284 352 357 343 353 365 369 364 353 355 369 396 395 381 377 368 289 86 54 56 53 56 111 328 362 359 352 338 333 254 69 44 39 38 39 38 39 36 30 27 26 22 21 20 20 16 20 18 14 24 
58 43 43 41 39 37 36 32 40 94 160 175 161 148 144 179 211 223 213 184 183 209 184 195 183 207 207 219 217 196 239 348 347 348 364 373 371 357 367 383 382 387 400 382 379 343 149 61 52 55 51 52 104 320 354 360 351 340 327 272 75 47 39 35 39 35 33 33 30 26 27 26 21 21 19 22 19 19 16 20 
67 63 61 61 58 59 57 58 83 149 175 184 198 201 175 166 157 191 235 211 188 192 195 186 182 204 203 214 241 204 197 328 361 360 371 382 379 371 364 361 378 389 392 378 354 202 60 48 43 56 51 59 110 317 356 355 342 341 327 287 84 43 36 35 35 36 33 31 32 21 23 21 18 22 16 22 17 16 17 19 
68 61 61 62 58 58 61 70 141 169 170 194 215 231 225 204 169 147 163 223 211 191 197 183 184 198 199 211 247 227 201 259 373 371 376 391 391 368 361 372 387 395 393 376 256 67 42 40 43 52 50 56 119 323 356 349 342 346 341 312 105 47 35 33 33 35 32 30 27 24 20 19 16 17 15 17 18 15 15 20 
63 54 55 53 55 51 60 95 176 184 181 201 217 224 226 225 201 170 148 158 211 202 192 183 186 192 205 208 247 241 205 209 345 381 390 397 376 374 370 377 380 403 392 352 226 80 46 38 38 52 51 55 143 337 354 351 344 343 348 329 142 48 36 32 36 35 31 30 26 20 21 19 15 19 19 13 18 16 13 19 
51 47 46 44 48 46 50 102 167 206 215 205 208 213 209 220 220 203 174 150 165 207 195 180 183 195 212 205 234 245 206 211 262 378 404 402 360 364 368 356 387 402 387 290 231 160 61 36 39 49 50 58 175 333 353 347 340 340 350 340 199 58 33 34 32 35 31 31 24 19 20 19 19 13 15 17 16 11 13 19 
45 41 39 39 44 40 48 101 134 153 168 176 186 194 207 231 238 239 220 170 153 191 206 183 179 201 219 201 228 239 198 203 209 310 391 405 386 382 372 378 403 403 334 250 222 176 87 40 45 54 53 66 215 340 349 344 341 343 354 344 253 69 40 34 34 36 33 27 28 22 25 19 17 16 16 16 13 9 11 15 
45 34 36 36 39 37 54 108 108 110 116 123 125 132 138 152 184 212 238 219 166 169 206 182 174 210 214 200 220 221 192 197 197 224 342 397 400 392 396 404 399 337 249 236 213 188 214 159 164 137 72 72 245 337 342 339 337 346 354 355 303 89 42 37 31 34 32 28 26 21 22 20 15 18 17 18 13 9 16 19 
47 37 36 36 37 42 68 124 121 128 140 147 148 153 150 143 130 126 157 214 210 171 188 187 177 213 210 193 216 210 190 197 197 192 251 366 379 379 384 383 332 199 197 225 203 217 255 246 231 209 138 98 280 342 337 336 339 353 358 361 336 121 47 39 37 33 33 30 28 20 20 19 13 16 15 14 14 12 14 26 
47 36 40 41 39 42 81 138 142 139 123 117 117 113 111 126 143 140 124 134 183 190 178 191 181 216 208 198 210 190 190 194 197 186 201 239 299 333 332 272 194 177 182 202 224 238 251 245 239 224 219 214 314 337 335 336 343 360 364 370 355 161 54 37 37 36 34 35 33 27 21 26 20 22 26 24 21 22 29 34 
44 40 41 39 41 43 92 151 122 116 120 132 143 157 153 139 135 127 123 127 130 169 182 195 188 216 202 202 198 183 190 201 195 194 190 191 193 218 191 184 225 217 222 205 242 242 249 236 233 229 234 257 336 337 335 338 342 359 367 376 369 216 60 39 35 36 36 42 56 59 58 61 63 53 60 59 66 69 63 74 
45 38 40 38 42 42 84 95 88 99 109 121 126 126 113 114 131 141 144 141 129 138 171 196 199 220 204 201 188 182 188 203 202 203 178 190 167 154 158 212 217 211 222 210 252 234 237 221 225 233 228 258 339 339 337 335 338 355 366 380 378 272 70 41 34 36 33 31 30 23 38 79 96 92 88 84 70 59 66 77 
41 35 36 34 36 48 64 69 76 92 96 95 95 98 99 117 130 139 149 163 157 139 151 187 208 215 205 191 189 183 194 207 199 200 184 192 166 148 182 210 206 224 222 213 249 224 230 218 224 227 233 297 340 337 332 335 345 361 369 372 376 319 85 40 34 34 33 26 26 18 38 56 72 78 97 103 101 96 94 93 
40 34 36 35 44 55 66 75 85 91 95 103 115 123 126 133 137 140 142 150 168 176 156 181 215 207 197 187 190 178 197 212 199 195 193 198 147 155 190 205 209 232 220 216 238 214 227 223 222 234 241 293 337 338 334 334 348 363 360 367 373 341 106 43 34 33 31 30 24 20 42 69 38 20 24 33 54 74 91 89 
38 31 32 35 49 63 83 97 102 104 107 110 113 112 117 138 143 157 169 159 159 184 176 187 215 200 188 194 183 181 202 212 200 191 192 167 143 175 195 198 219 230 216 212 222 213 231 229 243 255 260 305 334 341 338 340 348 359 358 371 375 356 120 41 32 33 31 28 25 22 65 76 21 13 16 15 12 17 17 22 
35 32 33 36 54 76 100 111 107 98 102 111 126 133 145 151 149 144 156 192 200 184 190 201 215 198 199 200 184 191 209 210 201 191 190 150 147 172 190 199 228 227 209 207 206 221 243 249 266 273 268 319 340 342 339 340 350 358 360 371 379 360 137 41 34 33 34 28 25 34 77 50 17 14 15 12 10 8 12 17 
39 35 33 40 60 93 118 116 103 105 119 125 129 144 158 176 179 178 182 179 189 203 204 207 207 202 210 202 195 202 209 207 198 183 188 153 156 167 192 210 232 214 202 204 197 231 259 264 262 260 286 329 348 344 337 341 350 352 361 374 383 361 146 42 34 33 35 29 22 34 64 38 19 15 11 11 8 9 9 14 
37 33 32 43 68 108 119 108 113 115 116 145 177 197 210 221 219 218 221 216 206 215 218 209 204 211 213 207 206 204 208 197 193 182 186 165 168 178 188 213 218 198 190 187 205 236 262 254 245 284 314 336 337 341 339 347 352 350 366 377 378 359 150 47 35 33 30 28 23 21 37 27 28 20 10 9 13 8 10 14 
40 35 34 50 78 110 114 116 111 122 151 187 202 205 209 221 232 247 256 257 245 241 235 207 210 218 207 202 201 203 200 185 185 180 184 170 170 189 196 208 201 182 180 179 209 244 250 229 262 307 337 337 336 341 350 348 345 349 357 368 372 352 151 50 35 35 32 28 23 22 33 19 30 30 11 9 10 8 9 15 
42 33 35 46 80 106 108 113 126 158 194 207 200 225 245 255 250 259 267 275 286 267 250 214 216 203 186 185 195 196 189 177 180 179 180 171 175 181 190 191 178 171 168 183 209 245 232 219 271 314 332 341 338 352 346 341 343 346 351 359 363 349 154 57 42 40 36 28 25 23 35 18 20 26 21 16 16 10 11 23 
40 34 34 43 67 94 109 129 164 206 217 215 240 250 237 249 279 283 290 284 290 281 246 215 203 189 185 187 188 188 181 174 181 171 171 169 171 176 180 180 168 166 161 184 217 238 218 215 263 322 326 344 345 345 339 337 341 343 346 354 354 336 151 66 58 55 54 42 43 38 43 38 44 39 39 36 30 28 23 28 
41 38 41 58 102 99 119 163 211 229 220 244 239 243 261 275 274 269 287 306 307 295 257 207 187 185 186 183 183 178 172 170 177 173 160 152 158 166 178 169 160 163 162 186 234 229 220 225 291 321 327 343 337 338 339 344 346 350 346 347 351 326 145 70 66 61 60 55 53 49 52 50 47 43 42 39 41 36 37 37 
45 43 58 115 146 105 134 192 226 221 235 243 251 258 266 265 283 319 330 326 333 329 315 282 238 205 199 187 183 178 174 166 172 170 162 149 150 152 167 162 161 164 167 200 240 223 234 242 304 309 330 343 336 344 344 346 345 346 342 343 342 308 138 88 75 69 62 56 58 54 55 51 51 51 48 48 42 44 45 48 
51 51 103 138 144 114 139 200 224 234 238 253 259 256 263 299 341 356 353 357 357 350 345 341 329 308 281 237 201 185 176 169 170 170 167 155 150 153 155 161 161 161 178 226 240 215 237 246 304 308 332 338 337 341 341 341 343 347 341 338 331 291 130 96 91 92 81 68 60 57 59 50 51 54 53 55 55 55 49 54 
54 74 119 136 146 132 132 187 221 234 242 247 247 263 318 353 356 364 368 366 368 366 364 359 353 343 337 332 315 285 243 201 189 176 169 157 157 159 162 163 176 182 204 248 240 213 225 264 312 309 327 332 336 343 341 344 342 340 333 334 321 263 125 102 101 99 98 99 88 72 63 54 57 54 56 60 55 50 54 56 
65 99 132 149 158 151 127 155 211 231 239 237 273 332 352 362 370 376 377 380 380 376 373 366 371 358 357 353 346 339 332 323 306 266 222 188 177 173 173 178 193 174 194 223 218 204 205 261 310 300 322 339 345 348 342 343 342 337 328 320 315 233 120 108 105 107 102 103 101 94 87 75 68 59 61 63 56 56 58 64 
91 122 143 158 167 170 168 148 204 228 238 286 341 345 359 374 376 379 383 383 382 378 383 379 377 370 369 364 357 355 348 342 340 331 326 314 293 270 257 253 241 213 208 199 190 184 197 221 280 303 314 342 353 363 357 351 345 335 320 310 297 195 120 111 112 110 109 103 104 101 101 99 96 89 77 68 60 53 61 69 
111 134 147 160 172 176 182 185 206 233 284 333 345 347 364 376 378 385 382 387 386 385 389 386 385 377 375 371 366 357 350 344 346 337 342 345 331 320 322 318 313 306 308 303 298 287 287 271 277 301 309 333 344 347 351 347 337 326 316 313 287 182 136 128 124 124 122 123 111 108 109 102 103 105 103 95 80 74 74 74 
128 138 152 163 176 178 182 190 203 255 309 330 346 356 363 374 378 381 384 384 391 386 385 388 387 383 381 377 367 361 355 355 353 350 347 350 336 328 331 325 322 319 322 319 320 320 319 316 329 341 344 344 337 341 340 346 344 345 351 355 342 322 299 271 255 238 259 282 185 159 144 117 114 117 114 112 107 93 84 84 
142 143 156 167 180 185 189 194 203 273 308 327 343 354 366 378 375 380 383 387 380 381 384 388 386 385 385 377 374 367 361 358 368 362 355 355 338 329 331 324 322 326 327 322 318 319 319 321 334 341 342 350 345 344 348 350 356 357 358 359 356 350 340 333 315 317 338 351 340 327 321 281 200 149 125 120 113 108 106 107 
148 148 161 167 182 197 200 202 210 265 303 320 336 350 364 375 376 377 381 385 384 383 385 391 387 388 388 381 375 368 363 356 364 367 366 363 348 338 329 327 328 331 328 324 319 318 317 315 323 334 330 337 341 350 352 355 356 359 358 359 360 359 352 339 334 332 331 350 353 353 358 353 353 310 246 173 131 119 113 107 
152 151 156 167 179 199 200 200 201 238 285 311 330 344 354 370 373 376 376 382 381 384 385 387 386 384 389 384 381 370 361 355 359 364 367 369 358 347 336 331 337 331 325 315 315 320 315 303 318 333 334 335 334 343 353 355 354 355 358 357 353 356 356 350 355 363 366 365 368 362 360 361 367 366 369 337 251 155 126 111 
153 144 151 159 182 198 204 201 193 205 268 296 316 331 343 357 363 370 373 379 380 384 385 386 386 388 389 386 377 373 364 357 359 361 367 371 356 348 340 340 335 326 317 315 318 316 310 308 322 332 335 335 337 343 350 343 337 339 341 348 346 355 353 350 355 363 371 385 385 383 383 375 381 383 380 376 354 275 155 122 
150 144 143 155 175 195 202 198 187 187 211 258 291 309 325 337 347 354 364 373 379 384 383 384 385 388 392 385 377 374 367 358 357 359 362 365 352 343 343 339 333 321 318 317 317 313 315 311 327 339 340 344 343 344 338 334 330 325 331 331 334 341 347 358 365 365 370 373 372 379 395 398 388 388 387 369 372 334 225 149 
154 140 142 155 170 189 200 201 189 183 184 193 203 221 244 276 303 327 342 359 370 374 375 376 378 379 382 376 369 369 365 355 359 354 357 354 343 336 334 333 329 320 320 318 321 323 321 315 332 344 349 350 339 338 335 328 321 314 319 328 330 336 341 343 354 367 368 371 365 363 376 380 384 385 388 382 376 364 327 230 
155 148 146 154 168 185 204 206 198 186 182 180 182 187 190 196 204 227 262 300 325 344 358 364 367 366 362 362 357 356 348 342 343 340 339 337 325 316 314 312 310 308 311 314 312 307 299 288 291 306 310 326 324 334 334 326 322 316 316 318 324 330 335 340 349 352 351 361 370 371 373 373 372 364 373 380 374 351 331 294 
163 157 160 163 170 186 203 214 208 198 184 176 182 184 183 188 197 205 206 213 218 235 282 312 323 326 328 330 329 327 324 314 317 311 310 312 292 281 273 256 246 244 246 247 248 243 237 232 245 260 261 258 272 306 323 329 330 330 326 325 322 326 329 334 343 345 342 344 356 369 374 379 373 356 349 341 341 330 302 261 
176 168 165 173 180 187 200 207 202 197 187 186 191 188 186 193 197 199 202 203 196 201 202 210 216 219 228 235 240 234 234 227 231 224 221 204 205 199 198 190 207 217 223 229 231 233 233 232 241 254 247 241 228 237 243 259 278 290 301 306 315 318 309 296 297 301 314 327 341 351 353 358 366 359 321 279 273 271 255 220 
188 170 175 177 180 192 200 200 205 203 203 209 210 199 194 200 202 206 198 194 186 186 191 188 181 186 193 193 185 181 184 182 188 185 176 171 183 185 187 188 218 234 241 246 245 247 250 240 251 264 256 247 227 228 226 222 220 220 223 229 237 248 244 234 238 240 241 253 282 300 320 328 325 326 306 222 183 195 185 179 


